<?xml version="1.0" encoding="UTF-8" standalone="no"?>
<svg
   xmlns:dc="http://purl.org/dc/elements/1.1/"
   xmlns:cc="http://creativecommons.org/ns#"
   xmlns:rdf="http://www.w3.org/1999/02/22-rdf-syntax-ns#"
   xmlns:svg="http://www.w3.org/2000/svg"
   xmlns="http://www.w3.org/2000/svg"
   xmlns:xlink="http://www.w3.org/1999/xlink"
   version="1.1"
   height="755.36000px"
   width="591.60000px"
   id="svg2"
   viewBox="0 0 258.0 300.0">
  <metadata
     id="metadata33">
    <rdf:RDF>
      <cc:Work
         rdf:about="">
        <dc:format>image/svg+xml</dc:format>
        <dc:type
           rdf:resource="http://purl.org/dc/dcmitype/StillImage" />
        <dc:title></dc:title>
      </cc:Work>
    </rdf:RDF>
  </metadata>
  <defs
     id="defs31">
    <linearGradient
       id="linearGradient4753">
      <stop
         id="stop4749"
         offset="0"
         style="stop-color:#fed921;stop-opacity:1" />
      <stop
         id="stop4751"
         offset="1"
         style="stop-color:#ff7002;stop-opacity:1" />
    </linearGradient>
    <radialGradient
       gradientUnits="userSpaceOnUse"
       gradientTransform="matrix(2.0398866,-0.02661493,0.03350424,2.5679135,-272.01156,-609.96657)"
       r="15.22834"
       fy="388.99799"
       fx="250.10474"
       cy="388.99799"
       cx="250.10474"
       id="radialGradient4757"
       xlink:href="#linearGradient4753" />
    <filter
       id="filter4937"
       style="color-interpolation-filters:sRGB;">
      <feFlood
         id="feFlood4927"
         result="flood"
         flood-color="rgb(0,0,0)"
         flood-opacity="0.498039" />
      <feComposite
         id="feComposite4929"
         result="composite1"
         operator="in"
         in2="SourceGraphic"
         in="flood" />
      <feGaussianBlur
         id="feGaussianBlur4931"
         result="blur"
         stdDeviation="3"
         in="composite1" />
      <feOffset
         id="feOffset4933"
         result="offset"
         dy="2.6"
         dx="1.7" />
      <feComposite
         id="feComposite4935"
         result="composite2"
         operator="over"
         in2="offset"
         in="SourceGraphic" />
    </filter>
    <filter
       id="filter5009"
       style="color-interpolation-filters:sRGB;">
      <feFlood
         id="feFlood4999"
         result="flood"
         flood-color="rgb(0,0,0)"
         flood-opacity="0.498039" />
      <feComposite
         id="feComposite5001"
         result="composite1"
         operator="in"
         in2="SourceGraphic"
         in="flood" />
      <feGaussianBlur
         id="feGaussianBlur5003"
         result="blur"
         stdDeviation="3"
         in="composite1" />
      <feOffset
         id="feOffset5005"
         result="offset"
         dy="1.8"
         dx="0.6" />
      <feComposite
         id="feComposite5007"
         result="composite2"
         operator="over"
         in2="offset"
         in="SourceGraphic" />
    </filter>
  </defs>
  <g
     id="g5075">
    <g
       id="g2427"
       style="fill:none;fill-opacity:1;stroke:#ffffff;stroke-width:3.29654551;stroke-miterlimit:4;stroke-dasharray:none;stroke-opacity:1">
      <path
         style="opacity:1;fill:none;fill-opacity:1;stroke:#ffffff;stroke-width:3.29654551;stroke-miterlimit:4;stroke-dasharray:none;stroke-opacity:1"
         id="path10"
         d="m 5.940481,14.4702 c 0.1,3.2 0.6,5.6 1.1,5.4 0.4,-0.3 0.7,1.3 0.4,3.5 -0.2,2.2 0.1,3.8 0.5,3.5 0.5,-0.3 0.8,1.3 0.5,3.5 -0.2,2.2 0.1,3.8 0.6,3.5 0.4,-0.3 0.7,1 0.4,3 -0.2,2 0,3.3 0.5,3 0.6,-0.3 0.8,1 0.5,3 -0.2,2 -0.1,3.4 0.3,3.2 0.9,-0.6 2.1,12.3 1.3,13.7 -0.5,0.7 -0.2,0.8 0.6,0.3 0.9,-0.6 1.1,0.2 0.8,3.3 -0.2,2.2 -0.1,3.9 0.3,3.7 0.9,-0.6 3.1,18.3 2.3,19.6 -0.5,0.8 -0.3,0.9 0.6,0.4 0.9,-0.6 1.1,0.2 0.8,3.3 -0.2,2.2 -0.1,3.9 0.3,3.6 0.8,-0.4 2.1,9.1 2.3,16.3 0,2.8 0.4,4.9 0.9,4.6 0.4,-0.2 0.7,0.8 0.7,2.4 0,1.5 0.4,4.3 0.9,6.1 0.6,1.8 0.6,3 0.3,2.8 -0.4,-0.3 -0.8,0.4 -0.8,1.4 0,1 0.4,1.6 1,1.3 0.5,-0.4 0.7,1.3 0.4,4.2 -0.4,2.9 -0.2,4.2 0.3,3.4 0.6,-1 0.9,-0.4 0.9,1.8 0,1.7 0.4,3.5 1,3.8 0.5,0.3 1,1.1 1,1.6 0,0.6 -0.6,0.7 -1.2,0.3 -1,-0.6 -1,-0.5 -0.1,0.8 0.7,0.8 0.9,1.9 0.5,2.3 -0.4,0.5 -0.1,0.5 0.7,0 1.1,-0.6 1.3,-0.3 0.9,1.3 -0.4,1.4 -0.2,2 0.4,1.6 0.7,-0.5 0.9,0.2 0.6,1.9 -0.3,1.6 -0.1,2.4 0.5,2 0.6,-0.4 0.8,0.4 0.5,2.1 -0.3,1.5 -0.3,2.4 0,2.1 0.5,-0.5 2.2,2.1 4.3,6.5 0.6,1.4 1.5,3.3 2,4.2 0.5,1.1 0.5,2.8 -0.2,4.5 -0.9,2.4 -0.7,3 1.5,4.8 1.4,1.2 2.6,2.5 2.6,3.1 0,0.6 -1.9,2.7 -4.3,4.7 -4.2,3.5 -4.7,4.8 -4.7,11.1 -0.1,1.6 -1,4.5 -2.1,6.3 -1.5,2.3 -2,4.6 -1.7,7.2 0.2,2.2 -0.1,3.7 -0.5,3.4 -0.5,-0.3 -0.4,0.4 0.2,1.4 0.6,1.1 0.8,2.3 0.5,2.6 -0.3,0.3 0,0.8 0.7,1.3 0.8,0.5 1,0.3 0.4,-0.7 -0.6,-1.1 -0.5,-1.2 0.5,-0.2 0.8,0.7 1.4,2.8 1.4,4.7 0.1,1.9 0.5,3.2 1,2.8 0.5,-0.3 0.6,0.5 0.3,1.9 -0.4,1.3 -0.7,2.8 -0.7,3.2 0,0.5 -0.4,0.6 -0.8,0.3 -0.4,-0.2 -0.9,0.5 -0.9,1.7 -0.2,1.8 0,1.9 0.8,0.7 0.9,-1.2 1,-1.1 0.4,0.5 -1.3,4.1 -2.3,10.7 -1.7,12.7 0.4,1.6 0.2,1.9 -0.9,1.2 -0.9,-0.5 -0.8,0 0.4,1.6 3.1,4.4 8.1,16.6 9.4,23 1.3,6.7 1.3,6.7 16.6,7.5 7.8,0.4 15.5,0.9 17.2,1 1.7,0.1 8.4,0.6 15,0.9 6.6,0.4 13.6,0.9 15.499999,1.1 1.9,0.2 8.9,0.7 15.5,1 6.6,0.3 17.4,1 24,1.5 10.4,0.8 26.9,1.8 40,2.5 2.7,0.1 3.9,0.6 3.7,1.5 -0.2,0.7 0.2,2.6 0.9,4.2 0.9,2.2 0.9,3.1 -0.2,4.5 -1,1.1 -1,1.4 -0.1,0.9 0.7,-0.4 1.2,-0.2 1.2,0.7 0,0.9 1.2,1.4 3.5,1.4 2.9,0 3.5,-0.4 3.6,-2.1 0,-1.2 0.4,-4.4 0.8,-7.3 0.5,-3.3 0.4,-5 -0.2,-4.6 -0.6,0.4 -0.8,-0.3 -0.5,-1.5 0.4,-1.2 0.2,-2 -0.3,-1.6 -0.5,0.3 -0.9,-0.4 -0.9,-1.6 0,-1.4 0.4,-1.9 1.3,-1.4 0.8,0.6 0.8,0.3 -0.1,-0.9 -2.2,-2.7 -0.3,-6.4 3.1,-5.8 0.4,0 0.7,-0.6 0.7,-1.4 0,-0.9 1,-1.5 2.6,-1.5 1.4,0 2.3,0.4 2,0.8 -0.2,0.4 0.5,0.9 1.7,0.9 1.2,0.1 2.3,0.7 2.5,1.3 0.2,0.5 0.8,0.7 1.3,0.4 0.6,-0.3 1.5,-0.1 2.2,0.4 2.1,1.7 11,3.2 12.4,2 0.7,-0.6 1,-1.5 0.6,-2 -1.2,-2.1 -1,-8 0.4,-9.4 1.3,-1.2 1.2,-1.4 -0.1,-1.4 -2.3,0 -2,-1.3 0.9,-4 1.9,-1.8 2.2,-2.6 1.3,-3.2 -1,-0.6 -1,-0.8 0,-0.8 0.7,0 1,-0.5 0.7,-1 -1.7,-2.8 -1.4,-7.8 0.7,-12.2 2.2,-4.5 5.8,-7.9 4.4,-4.1 -0.6,1.4 -0.4,1.5 0.5,0.6 1.2,-1.2 0.3,-3.7 -1.1,-2.8 -0.5,0.3 -0.7,-1.4 -0.5,-3.7 0.2,-2.4 0.9,-4.4 1.5,-4.6 0.8,-0.3 0.8,-0.8 0,-1.7 -1.3,-1.5 0.4,-3 3.4,-3 1.3,0 2,-0.8 2.2,-2.8 0.1,-1.5 -0.2,-2.7 -0.7,-2.7 -0.6,0 -0.7,-0.5 -0.3,-1.1 0.4,-0.8 0.9,-0.7 1.5,0.2 0.5,0.8 0.9,0.9 0.9,0.4 0,-0.6 -0.5,-1.6 -1.1,-2.2 -1.4,-1.4 2.5,-4.2 5.5,-3.9 3.5,0.4 3.2,-3.3 -0.4,-4.5 -3.5,-1.3 -4.6,-3.7 -2.5,-5.8 1.1,-1.1 1.5,-1.2 1.5,-0.3 0,0.7 0.4,1.1 0.9,0.8 0.5,-0.3 2.1,0.1 3.7,0.9 3.1,1.6 5.6,0.8 3.1,-1 -2.3,-1.6 -2.1,-3.2 0.3,-4 1.1,-0.3 1.9,-1.1 1.7,-1.7 -0.4,-2.3 -3.2,-4.8 -5.4,-4.8 -3.2,0 -5.6,-2.8 -5.1,-6.1 0.3,-1.5 0.1,-2.6 -0.4,-2.3 -0.4,0.3 -0.8,-0.6 -0.8,-2 0,-1.4 0.5,-2.8 1,-3.1 0.6,-0.4 0.2,-1.3 -0.9,-2.3 -1.1,-0.9 -2.2,-3 -2.4,-4.5 -0.4,-3.4 -5.1,-8.6 -8.9,-9.9 -3.3,-1.2 -4.1,-3.6 -4.2,-12.4 -0.1,-4.2 -0.5,-6 -1.2,-5.7 -1,0.4 -4.1,-6.1 -3.7,-7.7 0.8,-3.7 0.7,-4.5 -1.2,-4.5 -1.1,0 -1.9,-0.6 -1.7,-1.3 0.1,-0.8 -0.2,-1.1 -0.7,-0.7 -2.1,1.3 -9.1,-3.6 -13,-9.1 -2.2,-3.1 -3.8,-6 -3.6,-6.4 0.3,-0.4 -0.3,-0.7 -1.3,-0.6 -1.3,0.1 -1.8,-0.8 -2,-3.8 -0.2,-2.2 -1.1,-4.5 -1.9,-5.1 -0.9,-0.7 -1.3,-1.6 -1,-2.2 0.3,-0.5 -1.4,-2 -3.9,-3.2 -2.4,-1.2 -4.2,-2.7 -3.9,-3.2 0.4,-0.5 0,-0.6 -0.8,-0.3 -1.7,0.6 -5.1,-5.2 -4,-6.9 0.3,-0.6 0.1,-0.7 -0.5,-0.3 -0.7,0.4 -1.2,0.2 -1.2,-0.4 0,-1.4 -4.7,-5.8 -8.3,-7.6 -1.6,-0.9 -2.5,-2 -2.1,-2.6 0.4,-0.7 0.3,-0.8 -0.4,-0.4 -1.3,0.8 -6.4,-3.3 -5.6,-4.6 0.3,-0.5 0.1,-0.7 -0.4,-0.6 -0.6,0.2 -1.1,-0.1 -1.2,-0.7 -0.1,-0.6 -1,-2.4 -2.1,-4.1 -1,-1.7 -1.5,-3.4 -1.1,-3.8 0.4,-0.4 0.3,-0.7 -0.3,-0.6 -2.4,0.5 -3.6,-0.1 -3.4,-1.8 0.3,-2.1 -0.9,-5.1 -2.9,-7.4 -0.8,-1 -1.2,-2.4 -0.8,-3.3 0.3,-0.9 0.2,-1.3 -0.4,-1 -1.2,0.7 -3.3,-3.3 -2.6,-5 0.6,-1.6 -2.4,-2.9 -6.9,-3 -1.9,0 -2.9,-0.5 -2.7,-1.3 0.1,-0.8 -0.2,-1.1 -0.7,-0.8 -0.5,0.3 -2.2,-0.7 -3.8,-2.4 -1.5,-1.6 -3.1,-3 -3.5,-3 -1.9,0 -8.7,-5.7 -8.8,-7.3 0,-3.4 2.7,-8.2 6.7,-11.8 2.2,-2 4.3,-4.2 4.7,-4.8 0.5,-0.8 -15.9,-1.1 -62.799999,-1.1 h -63.5 z" />
      <path
         style="opacity:1;fill:none;fill-opacity:1;stroke:#ffffff;stroke-width:3.29654551;stroke-miterlimit:4;stroke-dasharray:none;stroke-opacity:1"
         id="path12"
         d="m 252.64048,197.0702 c 0,0.8 0.4,1.5 1,1.5 0.6,0 1,-0.7 1,-1.5 0,-0.8 -0.4,-1.5 -1,-1.5 -0.6,0 -1,0.7 -1,1.5 z" />
      <path
         style="opacity:1;fill:none;fill-opacity:1;stroke:#ffffff;stroke-width:3.29654551;stroke-miterlimit:4;stroke-dasharray:none;stroke-opacity:1"
         id="path14"
         d="m 239.14048,219.4702 c -0.3,0.5 -0.2,1.2 0.3,1.5 0.5,0.3 0.9,-0.1 0.9,-0.9 0,-1.7 -0.3,-1.9 -1.2,-0.6 z" />
      <path
         style="opacity:1;fill:none;fill-opacity:1;stroke:#ffffff;stroke-width:3.29654551;stroke-miterlimit:4;stroke-dasharray:none;stroke-opacity:1"
         id="path16"
         d="m 234.44048,229.7702 c -2.1,2.5 -2.2,3.4 -0.8,4.3 0.6,0.3 1,0 1,-0.8 0,-0.8 0.7,-2 1.5,-2.7 1.6,-1.3 2,-3 0.8,-3 -0.5,0 -1.6,1 -2.5,2.2 z" />
      <path
         style="opacity:1;fill:none;fill-opacity:1;stroke:#ffffff;stroke-width:3.29654551;stroke-miterlimit:4;stroke-dasharray:none;stroke-opacity:1"
         id="path18"
         d="m 228.64048,243.6702 c 0,1 -0.5,1.9 -1.1,1.9 -0.6,0 -0.9,1 -0.7,2.2 0.2,1.3 0.7,2.3 1.3,2.3 0.6,0 1.4,-1 2,-2.3 0.5,-1.2 1.3,-2.2 1.7,-2.2 1.7,0 0.7,-2.8 -1.2,-3.3 -1.5,-0.4 -2,0 -2,1.4 z" />
      <path
         style="opacity:1;fill:none;fill-opacity:1;stroke:#ffffff;stroke-width:3.29654551;stroke-miterlimit:4;stroke-dasharray:none;stroke-opacity:1"
         id="path20"
         d="m 224.74048,266.8702 c -0.7,0.9 -1,2.5 -0.6,3.4 0.6,1.7 0.7,1.7 1.6,0 0.6,-1 0.9,-2.5 0.7,-3.4 -0.3,-1.5 -0.4,-1.5 -1.7,0 z" />
    </g>
    <path
       style="opacity:1;fill:#ffffff;fill-opacity:1;stroke:#ffffff;stroke-width:2.29999089;stroke-miterlimit:4;stroke-dasharray:none;stroke-opacity:1"
       id="path4604"
       d="m 98.897913,42.445994 0.884914,-5.421654 -3.964558,-3.802588 5.429751,-0.833781 2.39136,-4.945583 2.47086,4.906349 5.4425,0.74605 -3.90268,3.86607 0.97229,5.406668 -4.88284,-2.516986 z" />
    <g
       id="g4671"
       transform="matrix(0.01850785,-0.0102395,-0.0102395,-0.01850785,126.89874,306.83699)"
       style="fill:#ffffff;stroke:none;fill-opacity:1">
      <path
         id="path4669"
         d="m 2830,12673 c -8,-3 -18,-11 -22,-18 -4,-6 -25,-17 -47,-25 -67,-22 -145,-91 -177,-157 -24,-47 -30,-74 -32,-145 -4,-76 -1,-94 21,-141 30,-66 81,-124 142,-163 46,-28 46,-29 41,-74 -13,-108 -47,-1122 -46,-1381 v -56 l -30,5 c -35,5 -50,-19 -31,-49 9,-16 8,-19 -8,-19 -28,0 -320,-57 -414,-81 -311,-78 -781,-232 -835,-273 -26,-19 -4,-81 63,-178 83,-120 153,-206 187,-231 l 28,-21 117,115 c 65,63 152,142 193,176 176,142 427,263 548,263 h 35 l -6,-102 c -14,-222 -18,-1014 -8,-1388 25,-924 30,-1269 35,-2450 8,-1651 24,-2711 56,-3755 9,-277 17,-439 50,-970 11,-187 63,-633 89,-771 18,-95 62,-259 81,-302 32,-71 43,-60 93,93 46,142 61,210 97,435 57,358 124,1101 155,1705 3,66 10,179 15,250 20,278 30,684 40,1545 12,1109 18,1549 31,2225 30,1641 38,2913 19,3299 -5,110 -8,201 -7,203 6,5 159,-27 212,-44 66,-21 170,-73 274,-136 80,-49 110,-74 298,-243 45,-41 86,-74 92,-74 11,0 98,118 190,259 80,122 80,140 2,175 -82,37 -237,92 -339,120 -202,57 -569,129 -764,151 -42,5 -56,10 -52,20 4,8 -7,17 -30,25 -27,8 -36,17 -36,33 0,12 -5,65 -10,118 -19,196 -60,952 -62,1161 l -3,216 30,23 c 98,76 139,158 139,276 -1,60 -6,83 -33,137 -34,71 -112,148 -168,168 -17,6 -34,19 -36,28 -6,23 -134,39 -177,23 z"
         style="fill:#ffffff;fill-opacity:1" />
    </g>
    <g
       id="g5013"
       transform="translate(-128.18288,-232.93448)">
      <path
         id="path4727"
         d="m 215.32117,348.65726 c 31.82901,-4.39293 37.66673,-4.3046 69.60468,0.68915 0,0 -0.87013,8.62681 1.46192,13.29581 2.77852,5.56286 10.25372,5.31138 10.25372,5.31138 0.43174,58.81523 -16.82519,76.21079 -45.08055,92.06135 -30.69189,-15.33705 -48.76056,-33.46982 -48.80461,-91.65766 0,0 8.22634,-0.30722 11.59023,-6.20238 2.91675,-5.11155 0.97461,-13.49765 0.97461,-13.49765 z"
         style="fill:#606060;fill-opacity:1;stroke:#1e1e1e;stroke-width:2.57954693;stroke-linecap:butt;stroke-linejoin:round;stroke-miterlimit:4;stroke-dasharray:none;stroke-opacity:1;filter:url(#filter5009)" />
      <path
         id="rect4731"
         d="m 248.76963,363.89445 v 15.95959 h -12.06019 v 6.091 h 12.06019 v 45.92822 h 6.09185 v -45.92822 h 12.30464 v -6.091 h -12.30464 v -15.95959 z"
         style="opacity:1;fill:url(#radialGradient4757);fill-opacity:1;stroke:none;stroke-width:2.57954693;stroke-linejoin:round;stroke-miterlimit:4;stroke-dasharray:none;stroke-opacity:1;filter:url(#filter4937)" />
    </g>
  </g>
</svg>
